<?xml version="1.0" encoding="UTF-8"?>
<svg width="20px" height="20px" viewBox="0 0 20 20" version="1.1" xmlns="http://www.w3.org/2000/svg" xmlns:xlink="http://www.w3.org/1999/xlink">
    <!-- Generator: Sketch 53.2 (72643) - https://sketchapp.com -->
    <title>icon_medium</title>
    <desc>Created with Sketch.</desc>
    <g id="Page-1" stroke="none" stroke-width="1" fill="none" fill-rule="evenodd">
        <g id="Early-Access" transform="translate(-935.000000, -63.000000)" fill-rule="nonzero">
            <g id="Header">
                <g id="Group-5" transform="translate(800.000000, 63.000000)">
                    <g id="Group-6" transform="translate(135.000000, 0.000000)">
                        <g id="Monogram">
                            <rect id="Rectangle-path" fill="#12100E" x="0" y="0" width="20" height="20"></rect>
                            <path d="M4.66013072,6.74397413 C4.67752465,6.57388682 4.61198779,6.40577443 4.48366013,6.29129923 L3.17647059,4.73280423 L3.17647059,4.5 L7.23529412,4.5 L10.372549,11.3095238 L13.130719,4.5 L17,4.5 L17,4.73280423 L15.882353,5.79335685 C15.7859995,5.86604639 15.7382033,5.98551681 15.75817,6.10376249 L15.75817,13.8962375 C15.7382033,14.0144832 15.7859995,14.1339536 15.882353,14.2066432 L16.9738562,15.2671958 L16.9738562,15.5 L11.4836602,15.5 L11.4836602,15.2671958 L12.6143791,14.180776 C12.7254902,14.0708407 12.7254902,14.0385068 12.7254902,13.8703704 L12.7254902,7.57172252 L9.58169934,15.4741329 L9.15686275,15.4741329 L5.49673202,7.57172252 L5.49673202,12.8680188 C5.46621518,13.09069 5.540938,13.3148712 5.6993464,13.4758966 L7.16993464,15.2413287 L7.16993464,15.4741329 L3,15.4741329 L3,15.2413287 L4.47058824,13.4758966 C4.62784328,13.3146042 4.69820896,13.0889359 4.66013072,12.8680188 L4.66013072,6.74397413 Z" id="Shape" fill="#FFFFFF"></path>
                        </g>
                    </g>
                </g>
            </g>
        </g>
    </g>
</svg>