<?xml version="1.0" encoding="UTF-8"?>
<svg width="153px" height="32px" viewBox="0 0 153 32" version="1.1" xmlns="http://www.w3.org/2000/svg" xmlns:xlink="http://www.w3.org/1999/xlink">
    <!-- Generator: Sketch 53.2 (72643) - https://sketchapp.com -->
    <title>logo_grad</title>
    <desc>Created with Sketch.</desc>
    <defs>
        <linearGradient x1="99.6793714%" y1="47.8268326%" x2="0%" y2="52.187193%" id="linearGradient-1">
            <stop stop-color="#9700FF" offset="0%"></stop>
            <stop stop-color="#EE0979" offset="100%"></stop>
        </linearGradient>
    </defs>
    <g id="Page-1" stroke="none" stroke-width="1" fill="none" fill-rule="evenodd">
        <g id="Early-Access" transform="translate(-249.000000, -58.000000)" fill="url(#linearGradient-1)" fill-rule="nonzero">
            <g id="Header">
                <g id="Logo" transform="translate(249.000000, 58.000000)">
                    <path d="M12.2013985,26.441639 C12.7510279,26.9702155 12.7509421,27.8271247 12.2012069,28.3555994 C11.6514717,28.8840741 10.7602607,28.8839917 10.2106313,28.3554152 L1.5113592,19.9893589 C-0.503888735,18.05139 -0.503768255,14.909589 1.51161179,12.9717788 L9.21789746,5.5618542 C9.76757061,5.03331986 10.6587817,5.03330564 11.2084731,5.56182244 C11.7581644,6.09033924 11.7581792,6.9472485 11.2085061,7.47578284 L3.5022039,14.8857233 C2.58611455,15.7665533 2.58605979,17.1946447 3.50210397,18.0755612 L12.2013985,26.441639 Z M14.526077,4.28579592 C13.9764039,4.81433026 13.0851928,4.81434447 12.5355014,4.28582768 C11.98581,3.75731088 11.9857952,2.90040162 12.5354684,2.37186728 L13.307336,1.62968342 C15.5672282,-0.543227807 19.2312373,-0.543227807 21.4911294,1.62968342 C23.7510215,3.80259465 23.7510215,7.32557983 21.4911294,9.49849106 L15.8876065,14.8863402 C14.9714693,15.7672161 14.9714693,17.1953982 15.8876065,18.0762742 L24.5877383,26.4415469 C25.1374206,26.9700725 25.1374206,27.8269818 24.5877383,28.3555073 C24.038056,28.8840329 23.146845,28.8840329 22.5971627,28.3555073 L13.8970309,19.9902346 C11.8815292,18.0523075 11.8815292,14.9103069 13.8970309,12.9723798 L19.5005538,7.58453066 C20.6610814,6.46867057 20.6610814,4.65950391 19.5005538,3.54364382 C18.3400262,2.42778372 16.4584392,2.42778372 15.2979281,3.54362794 L14.526077,4.28579592 Z M21.7726388,29.6896449 C22.3223213,30.2181702 22.3223218,31.0750795 21.7726398,31.6036053 C21.2229578,32.1321312 20.3317468,32.1321316 19.7820642,31.6036063 L18.4550131,30.3276334 C17.9053306,29.7991081 17.9053301,28.9421988 18.4550121,28.413673 C19.0046941,27.8851471 19.8959052,27.8851467 20.4455877,28.413672 L21.7726388,29.6896449 Z M17.12796,25.2237396 C17.6776426,25.7522649 17.677643,26.6091742 17.1279611,27.1377 C16.5782791,27.6662259 15.687068,27.6662263 15.1373855,27.137701 L7.70380691,19.9902405 C5.68830525,18.0523134 5.68830525,14.9103128 7.70380993,12.9723828 L16.4040007,4.60710414 C16.9536846,4.07858018 17.8448956,4.07858277 18.3945762,4.60710994 C18.9442569,5.13563711 18.9442542,5.99254637 18.3945702,6.52107034 L9.69438251,14.8863461 C8.77824539,15.7672221 8.77824539,17.1954042 9.694382,18.0762796 L17.12796,25.2237396 Z M49.4780786,16.4848921 C49.4780786,19.6273538 48.5964266,22.1553861 46.8330962,24.0690647 C45.0697657,25.9827434 42.7102,26.9395683 39.7543282,26.9395683 C36.7984564,26.9395683 34.4337944,25.9827434 32.6602713,24.0690647 C30.8867482,22.1553861 30,19.6273538 30,16.4848921 C30,13.3222863 30.881652,10.7841822 32.6449824,8.8705036 C34.4083128,6.95682496 36.7678786,6 39.7237504,6 C42.7203928,6 45.0952473,6.95178904 46.8483851,8.85539568 C48.6015228,10.7590023 49.4780786,13.3021424 49.4780786,16.4848921 Z M34.1280072,16.4848921 C34.1280072,18.6201546 34.6376327,20.312224 35.6568988,21.5611511 C36.6761649,22.8100782 38.0419611,23.4345324 39.7543282,23.4345324 C41.4870806,23.4345324 42.8528768,22.8151141 43.8517576,21.576259 C44.8506384,20.3374039 45.3500713,18.6402985 45.3500713,16.4848921 C45.3500713,14.3294856 44.8506384,12.6273444 43.8517576,11.3784173 C42.8528768,10.1294902 41.4768881,9.50503597 39.7237504,9.50503597 C37.9909979,9.50503597 36.6252018,10.1294902 35.626321,11.3784173 C34.6274402,12.6273444 34.1280072,14.3294856 34.1280072,16.4848921 Z M55.8645788,26.7280576 L55.8457355,26.7280576 C54.8645824,26.7280576 54.0692007,25.9326758 54.0692007,24.9515227 C54.0692007,24.903608 54.0711392,24.8557129 54.0750113,24.807955 L55.4170108,8.25611432 C55.5037361,7.18646952 56.3971182,6.36258993 57.470273,6.36258993 L58.5528362,6.36258993 C59.4082323,6.36258993 60.1746263,6.89121822 60.4784845,7.69082608 L62.7869032,13.7654676 C63.276151,15.0143947 63.7348139,16.2582672 64.1629057,17.4971223 C64.5909974,18.7359774 64.8967727,19.6575509 65.0802406,20.2618705 L65.3554411,21.1985612 C65.9873861,19.1035866 66.8639418,16.6259136 67.9851346,13.7654676 L70.3491112,7.67698286 C70.6567561,6.88463521 71.4194653,6.36258993 72.2694419,6.36258993 L73.3967064,6.36258993 C74.4557403,6.36258993 75.3422311,7.16557504 75.4466656,8.21944706 L77.0908269,24.8110437 C77.1858606,25.7700503 76.4854723,26.6245187 75.5264657,26.7195525 C75.4692828,26.7252191 75.4118549,26.7280576 75.3543919,26.7280576 L75.3065169,26.7280576 C74.2422055,26.7280576 73.3531158,25.9172905 73.2552452,24.8574885 L72.6941206,18.781295 L72.1437196,11.6503597 C71.409848,13.7251902 70.5332923,16.1021449 69.5140261,18.781295 L67.1024546,25.1951721 C66.8240645,25.9355854 66.1158834,26.4258993 65.3248632,26.4258993 C64.534903,26.4258993 63.8287461,25.9333073 63.5559321,25.1919506 L61.196856,18.781295 L58.7812073,11.7410072 C58.7812073,12.7280625 58.6487047,15.0748016 58.3836955,18.781295 L57.9185057,24.826121 C57.8359138,25.899346 56.940977,26.7280576 55.8645788,26.7280576 Z M98.5398561,18.9021583 C98.5398561,21.5410204 97.8212843,23.5503528 96.384119,24.9302158 C94.9469538,26.3100788 92.9747034,27 90.4673086,27 C88.0210699,27 86.0692045,26.3201507 84.6116539,24.9604317 C83.1541034,23.6007126 82.425339,21.6518113 82.425339,19.1136691 L82.425339,8.2889933 C82.425339,7.2250701 83.2878192,6.36258993 84.3517424,6.36258993 C85.4156656,6.36258993 86.2781458,7.2250701 86.2781458,8.2889933 L86.2781458,19.0834532 C86.2781458,20.6345401 86.6654611,21.7575505 87.4401033,22.452518 C88.2147456,23.1474855 89.223804,23.494964 90.4673086,23.494964 C93.2804832,23.494964 94.6870494,21.9741159 94.6870494,18.9323741 L94.6870494,8.2889933 C94.6870494,7.2250701 95.5495295,6.36258993 96.6134528,6.36258993 C97.677376,6.36258993 98.5398561,7.2250701 98.5398561,8.2889933 L98.5398561,18.9021583 Z M115.475689,9.50503597 L111.818103,9.50503597 L111.818103,24.7863653 C111.818103,25.8587323 110.948778,26.7280576 109.876411,26.7280576 C108.804044,26.7280576 107.934718,25.8587323 107.934718,24.7863653 L107.934718,9.50503597 L104.277132,9.50503597 C103.40937,9.50503597 102.705909,8.80157546 102.705909,7.93381295 C102.705909,7.06605044 103.40937,6.36258993 104.277132,6.36258993 L115.475689,6.36258993 C116.343452,6.36258993 117.046912,7.06605044 117.046912,7.93381295 C117.046912,8.80157546 116.343452,9.50503597 115.475689,9.50503597 Z M132.040872,26.7280576 L123.364699,26.7280576 C122.226992,26.7280576 121.304699,25.8057642 121.304699,24.6680576 L121.304699,8.42258987 C121.304699,7.28488332 122.226992,6.36258993 123.364699,6.36258993 L131.91856,6.36258993 C132.777979,6.36258993 133.474676,7.05928639 133.474676,7.91870504 C133.474676,8.77812368 132.777979,9.47482014 131.91856,9.47482014 L125.188083,9.47482014 L125.188083,15.0043165 L131.016333,15.0043165 C131.867408,15.0043165 132.557341,15.694249 132.557341,16.5453237 C132.557341,17.3963985 131.867408,18.0863309 131.016333,18.0863309 L125.188083,18.0863309 L125.188083,23.6158273 L132.040872,23.6158273 C132.90029,23.6158273 133.596987,24.3125238 133.596987,25.1719424 C133.596987,26.0313611 132.90029,26.7280576 132.040872,26.7280576 Z M140.72909,26.7280576 C139.665166,26.7280576 138.802686,25.8695231 138.802686,24.8104672 L138.802686,8.90729574 C138.802686,7.50189353 139.947226,6.36258993 141.359087,6.36258993 L145.162875,6.36258993 C147.507187,6.36258993 149.346935,6.94675675 150.682174,8.11510791 C152.017412,9.28345908 152.685022,10.8445945 152.685022,12.7985612 C152.664636,14.2489281 152.307899,15.4726569 151.614798,16.4697842 C150.921697,17.4669115 149.973793,18.2071918 148.771059,18.6906475 L152.795857,24.8058021 C153.173416,25.3794524 153.012314,26.1491591 152.436027,26.52499 C152.232869,26.6574818 151.995275,26.7280576 151.752398,26.7280576 L150.858823,26.7280576 C149.978396,26.7280576 149.159925,26.2770801 148.692483,25.5344042 L144.765363,19.294964 L142.655493,19.294964 L142.655493,24.8104672 C142.655493,25.8695231 141.793013,26.7280576 140.72909,26.7280576 Z M145.162875,9.50503597 L142.655493,9.50503597 L142.655493,16.152518 L145.224031,16.152518 C146.40638,16.152518 147.293128,15.8553987 147.884302,15.2611511 C148.475477,14.6669035 148.771059,13.8359766 148.771059,12.7683453 C148.771059,11.7208581 148.460188,10.9151107 147.838435,10.3510791 C147.216683,9.78704754 146.324839,9.50503597 145.162875,9.50503597 Z" id="Combined-Shape"></path>
                </g>
            </g>
        </g>
    </g>
</svg>